<?xml version="1.0" encoding="utf-8" standalone="no"?>
<!DOCTYPE svg PUBLIC "-//W3C//DTD SVG 1.1//EN"
  "http://www.w3.org/Graphics/SVG/1.1/DTD/svg11.dtd">
<svg xmlns:xlink="http://www.w3.org/1999/xlink" width="573.471094pt" height="321.857797pt" viewBox="0 0 573.471094 321.857797" xmlns="http://www.w3.org/2000/svg" version="1.1">
 <metadata>
  <rdf:RDF xmlns:dc="http://purl.org/dc/elements/1.1/" xmlns:cc="http://creativecommons.org/ns#" xmlns:rdf="http://www.w3.org/1999/02/22-rdf-syntax-ns#">
   <cc:Work>
    <dc:type rdf:resource="http://purl.org/dc/dcmitype/StillImage"/>
    <dc:date>2026-09-12T02:08:35.695121</dc:date>
    <dc:format>image/svg+xml</dc:format>
    <dc:creator>
     <cc:Agent>
      <dc:title>Matplotlib v3.9.2, https://matplotlib.org/</dc:title>
     </cc:Agent>
    </dc:creator>
   </cc:Work>
  </rdf:RDF>
 </metadata>
 <defs>
  <style type="text/css">*{stroke-linejoin: round; stroke-linecap: butt}</style>
 </defs>
 <g id="figure_1">
  <g id="patch_1">
   <path d="M 0 321.857797 
L 573.471094 321.857797 
L 573.471094 0 
L 0 0 
z
" style="fill: #ffffff"/>
  </g>
  <g id="axes_1">
   <g id="patch_2">
    <path d="M 75.6 254.254313 
L 499.68 254.254313 
L 499.68 21.406313 
L 75.6 21.406313 
z
" style="fill: #ffffff"/>
   </g>
   <g id="patch_3">
    <path d="M 94.876364 254.254313 
L 164.972231 254.254313 
L 164.972231 21.406313 
L 94.876364 21.406313 
z
" clip-path="url(#p642eb563d8)" style="fill: #9e9e9e; opacity: 0.28; stroke: #9e9e9e; stroke-linejoin: miter"/>
   </g>
   <g id="patch_4">
    <path d="M 182.496198 254.254313 
L 252.592066 254.254313 
L 252.592066 21.406313 
L 182.496198 21.406313 
z
" clip-path="url(#p642eb563d8)" style="fill: #9e9e9e; opacity: 0.28; stroke: #9e9e9e; stroke-linejoin: miter"/>
   </g>
   <g id="patch_5">
    <path d="M 270.116033 254.254313 
L 340.211901 254.254313 
L 340.211901 21.406313 
L 270.116033 21.406313 
z
" clip-path="url(#p642eb563d8)" style="fill: #9e9e9e; opacity: 0.28; stroke: #9e9e9e; stroke-linejoin: miter"/>
   </g>
   <g id="patch_6">
    <path d="M 357.735868 254.254313 
L 427.831736 254.254313 
L 427.831736 21.406313 
L 357.735868 21.406313 
z
" clip-path="url(#p642eb563d8)" style="fill: #9e9e9e; opacity: 0.28; stroke: #9e9e9e; stroke-linejoin: miter"/>
   </g>
   <g id="matplotlib.axis_1">
    <g id="xtick_1">
     <g id="line2d_1">
      <path d="M 129.924298 254.254313 
L 129.924298 21.406313 
" clip-path="url(#p642eb563d8)" style="fill: none; stroke: #b0b0b0; stroke-opacity: 0.25; stroke-width: 0.8; stroke-linecap: square"/>
     </g>
     <g id="line2d_2">
      <defs>
       <path id="m8d431a9c4c" d="M 0 0 
L 0 3.5 
" style="stroke: #000000; stroke-width: 0.8"/>
      </defs>
      <g>
       <use xlink:href="#m8d431a9c4c" x="129.924298" y="254.254313" style="stroke: #000000; stroke-width: 0.8"/>
      </g>
     </g>
     <g id="text_1">
      <!-- 16 -->
      <g transform="translate(124.198048 268.092906) scale(0.09 -0.09)">
       <defs>
        <path id="DejaVuSans-31" d="M 794 531 
L 1825 531 
L 1825 4091 
L 703 3866 
L 703 4441 
L 1819 4666 
L 2450 4666 
L 2450 531 
L 3481 531 
L 3481 0 
L 794 0 
L 794 531 
z
" transform="scale(0.015625)"/>
        <path id="DejaVuSans-36" d="M 2113 2584 
Q 1688 2584 1439 2293 
Q 1191 2003 1191 1497 
Q 1191 994 1439 701 
Q 1688 409 2113 409 
Q 2538 409 2786 701 
Q 3034 994 3034 1497 
Q 3034 2003 2786 2293 
Q 2538 2584 2113 2584 
z
M 3366 4563 
L 3366 3988 
Q 3128 4100 2886 4159 
Q 2644 4219 2406 4219 
Q 1781 4219 1451 3797 
Q 1122 3375 1075 2522 
Q 1259 2794 1537 2939 
Q 1816 3084 2150 3084 
Q 2853 3084 3261 2657 
Q 3669 2231 3669 1497 
Q 3669 778 3244 343 
Q 2819 -91 2113 -91 
Q 1303 -91 875 529 
Q 447 1150 447 2328 
Q 447 3434 972 4092 
Q 1497 4750 2381 4750 
Q 2619 4750 2861 4703 
Q 3103 4656 3366 4563 
z
" transform="scale(0.015625)"/>
       </defs>
       <use xlink:href="#DejaVuSans-31"/>
       <use xlink:href="#DejaVuSans-36" x="63.623047"/>
      </g>
     </g>
    </g>
    <g id="xtick_2">
     <g id="line2d_3">
      <path d="M 217.544132 254.254313 
L 217.544132 21.406313 
" clip-path="url(#p642eb563d8)" style="fill: none; stroke: #b0b0b0; stroke-opacity: 0.25; stroke-width: 0.8; stroke-linecap: square"/>
     </g>
     <g id="line2d_4">
      <g>
       <use xlink:href="#m8d431a9c4c" x="217.544132" y="254.254313" style="stroke: #000000; stroke-width: 0.8"/>
      </g>
     </g>
     <g id="text_2">
      <!-- 32 -->
      <g transform="translate(211.817882 268.092906) scale(0.09 -0.09)">
       <defs>
        <path id="DejaVuSans-33" d="M 2597 2516 
Q 3050 2419 3304 2112 
Q 3559 1806 3559 1356 
Q 3559 666 3084 287 
Q 2609 -91 1734 -91 
Q 1441 -91 1130 -33 
Q 819 25 488 141 
L 488 750 
Q 750 597 1062 519 
Q 1375 441 1716 441 
Q 2309 441 2620 675 
Q 2931 909 2931 1356 
Q 2931 1769 2642 2001 
Q 2353 2234 1838 2234 
L 1294 2234 
L 1294 2753 
L 1863 2753 
Q 2328 2753 2575 2939 
Q 2822 3125 2822 3475 
Q 2822 3834 2567 4026 
Q 2313 4219 1838 4219 
Q 1578 4219 1281 4162 
Q 984 4106 628 3988 
L 628 4550 
Q 988 4650 1302 4700 
Q 1616 4750 1894 4750 
Q 2613 4750 3031 4423 
Q 3450 4097 3450 3541 
Q 3450 3153 3228 2886 
Q 3006 2619 2597 2516 
z
" transform="scale(0.015625)"/>
        <path id="DejaVuSans-32" d="M 1228 531 
L 3431 531 
L 3431 0 
L 469 0 
L 469 531 
Q 828 903 1448 1529 
Q 2069 2156 2228 2338 
Q 2531 2678 2651 2914 
Q 2772 3150 2772 3378 
Q 2772 3750 2511 3984 
Q 2250 4219 1831 4219 
Q 1534 4219 1204 4116 
Q 875 4013 500 3803 
L 500 4441 
Q 881 4594 1212 4672 
Q 1544 4750 1819 4750 
Q 2544 4750 2975 4387 
Q 3406 4025 3406 3419 
Q 3406 3131 3298 2873 
Q 3191 2616 2906 2266 
Q 2828 2175 2409 1742 
Q 1991 1309 1228 531 
z
" transform="scale(0.015625)"/>
       </defs>
       <use xlink:href="#DejaVuSans-33"/>
       <use xlink:href="#DejaVuSans-32" x="63.623047"/>
      </g>
     </g>
    </g>
    <g id="xtick_3">
     <g id="line2d_5">
      <path d="M 305.163967 254.254313 
L 305.163967 21.406313 
" clip-path="url(#p642eb563d8)" style="fill: none; stroke: #b0b0b0; stroke-opacity: 0.25; stroke-width: 0.8; stroke-linecap: square"/>
     </g>
     <g id="line2d_6">
      <g>
       <use xlink:href="#m8d431a9c4c" x="305.163967" y="254.254313" style="stroke: #000000; stroke-width: 0.8"/>
      </g>
     </g>
     <g id="text_3">
      <!-- 64 -->
      <g transform="translate(299.437717 268.092906) scale(0.09 -0.09)">
       <defs>
        <path id="DejaVuSans-34" d="M 2419 4116 
L 825 1625 
L 2419 1625 
L 2419 4116 
z
M 2253 4666 
L 3047 4666 
L 3047 1625 
L 3713 1625 
L 3713 1100 
L 3047 1100 
L 3047 0 
L 2419 0 
L 2419 1100 
L 313 1100 
L 313 1709 
L 2253 4666 
z
" transform="scale(0.015625)"/>
       </defs>
       <use xlink:href="#DejaVuSans-36"/>
       <use xlink:href="#DejaVuSans-34" x="63.623047"/>
      </g>
     </g>
    </g>
    <g id="xtick_4">
     <g id="line2d_7">
      <path d="M 392.783802 254.254313 
L 392.783802 21.406313 
" clip-path="url(#p642eb563d8)" style="fill: none; stroke: #b0b0b0; stroke-opacity: 0.25; stroke-width: 0.8; stroke-linecap: square"/>
     </g>
     <g id="line2d_8">
      <g>
       <use xlink:href="#m8d431a9c4c" x="392.783802" y="254.254313" style="stroke: #000000; stroke-width: 0.8"/>
      </g>
     </g>
     <g id="text_4">
      <!-- 128 -->
      <g transform="translate(384.194427 268.092906) scale(0.09 -0.09)">
       <defs>
        <path id="DejaVuSans-38" d="M 2034 2216 
Q 1584 2216 1326 1975 
Q 1069 1734 1069 1313 
Q 1069 891 1326 650 
Q 1584 409 2034 409 
Q 2484 409 2743 651 
Q 3003 894 3003 1313 
Q 3003 1734 2745 1975 
Q 2488 2216 2034 2216 
z
M 1403 2484 
Q 997 2584 770 2862 
Q 544 3141 544 3541 
Q 544 4100 942 4425 
Q 1341 4750 2034 4750 
Q 2731 4750 3128 4425 
Q 3525 4100 3525 3541 
Q 3525 3141 3298 2862 
Q 3072 2584 2669 2484 
Q 3125 2378 3379 2068 
Q 3634 1759 3634 1313 
Q 3634 634 3220 271 
Q 2806 -91 2034 -91 
Q 1263 -91 848 271 
Q 434 634 434 1313 
Q 434 1759 690 2068 
Q 947 2378 1403 2484 
z
M 1172 3481 
Q 1172 3119 1398 2916 
Q 1625 2713 2034 2713 
Q 2441 2713 2670 2916 
Q 2900 3119 2900 3481 
Q 2900 3844 2670 4047 
Q 2441 4250 2034 4250 
Q 1625 4250 1398 4047 
Q 1172 3844 1172 3481 
z
" transform="scale(0.015625)"/>
       </defs>
       <use xlink:href="#DejaVuSans-31"/>
       <use xlink:href="#DejaVuSans-32" x="63.623047"/>
       <use xlink:href="#DejaVuSans-38" x="127.246094"/>
      </g>
     </g>
    </g>
    <g id="xtick_5">
     <g id="line2d_9">
      <path d="M 480.403636 254.254313 
L 480.403636 21.406313 
" clip-path="url(#p642eb563d8)" style="fill: none; stroke: #b0b0b0; stroke-opacity: 0.25; stroke-width: 0.8; stroke-linecap: square"/>
     </g>
     <g id="line2d_10">
      <g>
       <use xlink:href="#m8d431a9c4c" x="480.403636" y="254.254313" style="stroke: #000000; stroke-width: 0.8"/>
      </g>
     </g>
     <g id="text_5">
      <!-- повний растр -->
      <g transform="translate(448.268714 268.092906) scale(0.09 -0.09)">
       <defs>
        <path id="DejaVuSans-43f" d="M 3603 3500 
L 3603 0 
L 3025 0 
L 3025 3041 
L 1159 3041 
L 1159 0 
L 581 0 
L 581 3500 
L 3603 3500 
z
" transform="scale(0.015625)"/>
        <path id="DejaVuSans-43e" d="M 1959 3097 
Q 1497 3097 1228 2736 
Q 959 2375 959 1747 
Q 959 1119 1226 758 
Q 1494 397 1959 397 
Q 2419 397 2687 759 
Q 2956 1122 2956 1747 
Q 2956 2369 2687 2733 
Q 2419 3097 1959 3097 
z
M 1959 3584 
Q 2709 3584 3137 3096 
Q 3566 2609 3566 1747 
Q 3566 888 3137 398 
Q 2709 -91 1959 -91 
Q 1206 -91 779 398 
Q 353 888 353 1747 
Q 353 2609 779 3096 
Q 1206 3584 1959 3584 
z
" transform="scale(0.015625)"/>
        <path id="DejaVuSans-432" d="M 1156 1613 
L 1156 459 
L 1975 459 
Q 2369 459 2575 607 
Q 2781 756 2781 1038 
Q 2781 1319 2575 1466 
Q 2369 1613 1975 1613 
L 1156 1613 
z
M 1156 3041 
L 1156 2072 
L 1913 2072 
Q 2238 2072 2444 2201 
Q 2650 2331 2650 2563 
Q 2650 2794 2444 2917 
Q 2238 3041 1913 3041 
L 1156 3041 
z
M 581 3500 
L 1950 3500 
Q 2566 3500 2897 3275 
Q 3228 3050 3228 2634 
Q 3228 2313 3059 2123 
Q 2891 1934 2559 1888 
Q 2956 1813 3175 1575 
Q 3394 1338 3394 981 
Q 3394 513 3033 256 
Q 2672 0 2003 0 
L 581 0 
L 581 3500 
z
" transform="scale(0.015625)"/>
        <path id="DejaVuSans-43d" d="M 581 3500 
L 1159 3500 
L 1159 2072 
L 3025 2072 
L 3025 3500 
L 3603 3500 
L 3603 0 
L 3025 0 
L 3025 1613 
L 1159 1613 
L 1159 0 
L 581 0 
L 581 3500 
z
" transform="scale(0.015625)"/>
        <path id="DejaVuSans-438" d="M 3578 3500 
L 3578 0 
L 3006 0 
L 3006 2809 
L 1319 0 
L 581 0 
L 581 3500 
L 1153 3500 
L 1153 697 
L 2838 3500 
L 3578 3500 
z
" transform="scale(0.015625)"/>
        <path id="DejaVuSans-439" d="M 3578 3500 
L 3578 0 
L 3006 0 
L 3006 2809 
L 1319 0 
L 581 0 
L 581 3500 
L 1153 3500 
L 1153 697 
L 2838 3500 
L 3578 3500 
z
M 1102 4833 
L 1471 4833 
Q 1505 4599 1656 4481 
Q 1808 4364 2080 4364 
Q 2349 4364 2499 4480 
Q 2649 4596 2689 4833 
L 3058 4833 
Q 3027 4386 2780 4161 
Q 2533 3936 2080 3936 
Q 1627 3936 1380 4161 
Q 1133 4386 1102 4833 
z
" transform="scale(0.015625)"/>
        <path id="DejaVuSans-20" transform="scale(0.015625)"/>
        <path id="DejaVuSans-440" d="M 1159 525 
L 1159 -1331 
L 581 -1331 
L 581 3500 
L 1159 3500 
L 1159 2969 
Q 1341 3281 1617 3432 
Q 1894 3584 2278 3584 
Q 2916 3584 3314 3078 
Q 3713 2572 3713 1747 
Q 3713 922 3314 415 
Q 2916 -91 2278 -91 
Q 1894 -91 1617 61 
Q 1341 213 1159 525 
z
M 3116 1747 
Q 3116 2381 2855 2742 
Q 2594 3103 2138 3103 
Q 1681 3103 1420 2742 
Q 1159 2381 1159 1747 
Q 1159 1113 1420 752 
Q 1681 391 2138 391 
Q 2594 391 2855 752 
Q 3116 1113 3116 1747 
z
" transform="scale(0.015625)"/>
        <path id="DejaVuSans-430" d="M 2194 1759 
Q 1497 1759 1228 1600 
Q 959 1441 959 1056 
Q 959 750 1161 570 
Q 1363 391 1709 391 
Q 2188 391 2477 730 
Q 2766 1069 2766 1631 
L 2766 1759 
L 2194 1759 
z
M 3341 1997 
L 3341 0 
L 2766 0 
L 2766 531 
Q 2569 213 2275 61 
Q 1981 -91 1556 -91 
Q 1019 -91 701 211 
Q 384 513 384 1019 
Q 384 1609 779 1909 
Q 1175 2209 1959 2209 
L 2766 2209 
L 2766 2266 
Q 2766 2663 2505 2880 
Q 2244 3097 1772 3097 
Q 1472 3097 1187 3025 
Q 903 2953 641 2809 
L 641 3341 
Q 956 3463 1253 3523 
Q 1550 3584 1831 3584 
Q 2591 3584 2966 3190 
Q 3341 2797 3341 1997 
z
" transform="scale(0.015625)"/>
        <path id="DejaVuSans-441" d="M 3122 3366 
L 3122 2828 
Q 2878 2963 2633 3030 
Q 2388 3097 2138 3097 
Q 1578 3097 1268 2742 
Q 959 2388 959 1747 
Q 959 1106 1268 751 
Q 1578 397 2138 397 
Q 2388 397 2633 464 
Q 2878 531 3122 666 
L 3122 134 
Q 2881 22 2623 -34 
Q 2366 -91 2075 -91 
Q 1284 -91 818 406 
Q 353 903 353 1747 
Q 353 2603 823 3093 
Q 1294 3584 2113 3584 
Q 2378 3584 2631 3529 
Q 2884 3475 3122 3366 
z
" transform="scale(0.015625)"/>
        <path id="DejaVuSans-442" d="M 188 3500 
L 3541 3500 
L 3541 3041 
L 2147 3041 
L 2147 0 
L 1581 0 
L 1581 3041 
L 188 3041 
L 188 3500 
z
" transform="scale(0.015625)"/>
       </defs>
       <use xlink:href="#DejaVuSans-43f"/>
       <use xlink:href="#DejaVuSans-43e" x="65.380859"/>
       <use xlink:href="#DejaVuSans-432" x="126.5625"/>
       <use xlink:href="#DejaVuSans-43d" x="185.498047"/>
       <use xlink:href="#DejaVuSans-438" x="250.878906"/>
       <use xlink:href="#DejaVuSans-439" x="315.869141"/>
       <use xlink:href="#DejaVuSans-20" x="380.859375"/>
       <use xlink:href="#DejaVuSans-440" x="412.646484"/>
       <use xlink:href="#DejaVuSans-430" x="476.123047"/>
       <use xlink:href="#DejaVuSans-441" x="537.402344"/>
       <use xlink:href="#DejaVuSans-442" x="592.382812"/>
       <use xlink:href="#DejaVuSans-440" x="650.634766"/>
      </g>
     </g>
    </g>
    <g id="text_6">
     <!-- висота вікна розміщення, рядки символів -->
     <g transform="translate(188.444531 280.803219) scale(0.09 -0.09)">
      <defs>
       <path id="DejaVuSans-456" d="M 603 3500 
L 1178 3500 
L 1178 0 
L 603 0 
L 603 3500 
z
M 603 4863 
L 1178 4863 
L 1178 4134 
L 603 4134 
L 603 4863 
z
" transform="scale(0.015625)"/>
       <path id="DejaVuSans-43a" d="M 581 3500 
L 1153 3500 
L 1153 1856 
L 2775 3500 
L 3481 3500 
L 2144 2147 
L 3653 0 
L 3009 0 
L 1769 1766 
L 1153 1141 
L 1153 0 
L 581 0 
L 581 3500 
z
" transform="scale(0.015625)"/>
       <path id="DejaVuSans-437" d="M 2206 1888 
Q 2594 1813 2809 1584 
Q 3025 1356 3025 1019 
Q 3025 478 2622 193 
Q 2219 -91 1475 -91 
Q 1225 -91 961 -47 
Q 697 -3 416 84 
L 416 619 
Q 638 503 903 445 
Q 1169 388 1459 388 
Q 1931 388 2195 563 
Q 2459 738 2459 1019 
Q 2459 1294 2225 1461 
Q 1991 1628 1563 1628 
L 1100 1628 
L 1100 2103 
L 1584 2103 
Q 1947 2103 2158 2242 
Q 2369 2381 2369 2600 
Q 2369 2800 2151 2944 
Q 1934 3088 1563 3088 
Q 1341 3088 1089 3047 
Q 838 3006 534 2916 
L 534 3438 
Q 841 3513 1106 3550 
Q 1372 3588 1609 3588 
Q 2222 3588 2576 3342 
Q 2931 3097 2931 2656 
Q 2931 2366 2743 2164 
Q 2556 1963 2206 1888 
z
" transform="scale(0.015625)"/>
       <path id="DejaVuSans-43c" d="M 581 3500 
L 1422 3500 
L 2416 1156 
L 3413 3500 
L 4247 3500 
L 4247 0 
L 3669 0 
L 3669 2950 
L 2703 672 
L 2128 672 
L 1159 2950 
L 1159 0 
L 581 0 
L 581 3500 
z
" transform="scale(0.015625)"/>
       <path id="DejaVuSans-449" d="M 5275 0 
L 581 0 
L 581 3500 
L 1159 3500 
L 1159 459 
L 2638 459 
L 2638 3500 
L 3216 3500 
L 3216 459 
L 4697 459 
L 4697 3500 
L 5275 3500 
L 5275 459 
L 5734 459 
L 5734 -884 
L 5275 -884 
L 5275 0 
z
" transform="scale(0.015625)"/>
       <path id="DejaVuSans-435" d="M 3597 1894 
L 3597 1613 
L 953 1613 
Q 991 1019 1311 708 
Q 1631 397 2203 397 
Q 2534 397 2845 478 
Q 3156 559 3463 722 
L 3463 178 
Q 3153 47 2828 -22 
Q 2503 -91 2169 -91 
Q 1331 -91 842 396 
Q 353 884 353 1716 
Q 353 2575 817 3079 
Q 1281 3584 2069 3584 
Q 2775 3584 3186 3129 
Q 3597 2675 3597 1894 
z
M 3022 2063 
Q 3016 2534 2758 2815 
Q 2500 3097 2075 3097 
Q 1594 3097 1305 2825 
Q 1016 2553 972 2059 
L 3022 2063 
z
" transform="scale(0.015625)"/>
       <path id="DejaVuSans-44f" d="M 1181 2491 
Q 1181 2231 1381 2084 
Q 1581 1938 1953 1938 
L 2728 1938 
L 2728 3041 
L 1953 3041 
Q 1581 3041 1381 2897 
Q 1181 2753 1181 2491 
z
M 363 0 
L 1431 1534 
Q 1069 1616 828 1830 
Q 588 2044 588 2491 
Q 588 2997 923 3248 
Q 1259 3500 1938 3500 
L 3306 3500 
L 3306 0 
L 2728 0 
L 2728 1478 
L 2013 1478 
L 981 0 
L 363 0 
z
" transform="scale(0.015625)"/>
       <path id="DejaVuSans-2c" d="M 750 794 
L 1409 794 
L 1409 256 
L 897 -744 
L 494 -744 
L 750 256 
L 750 794 
z
" transform="scale(0.015625)"/>
       <path id="DejaVuSans-434" d="M 1384 459 
L 3053 459 
L 3053 3041 
L 1844 3041 
L 1844 2603 
Q 1844 1316 1475 628 
L 1384 459 
z
M 550 459 
Q 834 584 959 850 
Q 1266 1509 1266 2838 
L 1266 3500 
L 3631 3500 
L 3631 459 
L 4091 459 
L 4091 -884 
L 3631 -884 
L 3631 0 
L 794 0 
L 794 -884 
L 334 -884 
L 334 459 
L 550 459 
z
" transform="scale(0.015625)"/>
       <path id="DejaVuSans-43b" d="M 238 0 
L 238 478 
Q 806 566 981 959 
Q 1194 1513 1194 2928 
L 1194 3500 
L 3559 3500 
L 3559 0 
L 2984 0 
L 2984 3041 
L 1769 3041 
L 1769 2694 
Q 1769 1344 1494 738 
Q 1200 91 238 0 
z
" transform="scale(0.015625)"/>
      </defs>
      <use xlink:href="#DejaVuSans-432"/>
      <use xlink:href="#DejaVuSans-438" x="58.935547"/>
      <use xlink:href="#DejaVuSans-441" x="123.925781"/>
      <use xlink:href="#DejaVuSans-43e" x="178.90625"/>
      <use xlink:href="#DejaVuSans-442" x="240.087891"/>
      <use xlink:href="#DejaVuSans-430" x="298.339844"/>
      <use xlink:href="#DejaVuSans-20" x="359.619141"/>
      <use xlink:href="#DejaVuSans-432" x="391.40625"/>
      <use xlink:href="#DejaVuSans-456" x="450.341797"/>
      <use xlink:href="#DejaVuSans-43a" x="478.125"/>
      <use xlink:href="#DejaVuSans-43d" x="538.525391"/>
      <use xlink:href="#DejaVuSans-430" x="603.90625"/>
      <use xlink:href="#DejaVuSans-20" x="665.185547"/>
      <use xlink:href="#DejaVuSans-440" x="696.972656"/>
      <use xlink:href="#DejaVuSans-43e" x="760.449219"/>
      <use xlink:href="#DejaVuSans-437" x="821.630859"/>
      <use xlink:href="#DejaVuSans-43c" x="874.804688"/>
      <use xlink:href="#DejaVuSans-456" x="950.244141"/>
      <use xlink:href="#DejaVuSans-449" x="978.027344"/>
      <use xlink:href="#DejaVuSans-435" x="1072.216797"/>
      <use xlink:href="#DejaVuSans-43d" x="1133.740234"/>
      <use xlink:href="#DejaVuSans-43d" x="1199.121094"/>
      <use xlink:href="#DejaVuSans-44f" x="1264.501953"/>
      <use xlink:href="#DejaVuSans-2c" x="1324.658203"/>
      <use xlink:href="#DejaVuSans-20" x="1356.445312"/>
      <use xlink:href="#DejaVuSans-440" x="1388.232422"/>
      <use xlink:href="#DejaVuSans-44f" x="1451.708984"/>
      <use xlink:href="#DejaVuSans-434" x="1511.865234"/>
      <use xlink:href="#DejaVuSans-43a" x="1581.005859"/>
      <use xlink:href="#DejaVuSans-438" x="1641.40625"/>
      <use xlink:href="#DejaVuSans-20" x="1706.396484"/>
      <use xlink:href="#DejaVuSans-441" x="1738.183594"/>
      <use xlink:href="#DejaVuSans-438" x="1793.164062"/>
      <use xlink:href="#DejaVuSans-43c" x="1858.154297"/>
      <use xlink:href="#DejaVuSans-432" x="1933.59375"/>
      <use xlink:href="#DejaVuSans-43e" x="1992.529297"/>
      <use xlink:href="#DejaVuSans-43b" x="2053.710938"/>
      <use xlink:href="#DejaVuSans-456" x="2117.626953"/>
      <use xlink:href="#DejaVuSans-432" x="2145.410156"/>
     </g>
    </g>
   </g>
   <g id="matplotlib.axis_2">
    <g id="ytick_1">
     <g id="line2d_11">
      <path d="M 75.6 253.636952 
L 499.68 253.636952 
" clip-path="url(#p642eb563d8)" style="fill: none; stroke: #b0b0b0; stroke-opacity: 0.25; stroke-width: 0.8; stroke-linecap: square"/>
     </g>
     <g id="line2d_12">
      <defs>
       <path id="mac032ef414" d="M 0 0 
L -3.5 0 
" style="stroke: #000000; stroke-width: 0.8"/>
      </defs>
      <g>
       <use xlink:href="#mac032ef414" x="75.6" y="253.636952" style="stroke: #000000; stroke-width: 0.8"/>
      </g>
     </g>
     <g id="text_7">
      <!-- 26.0 -->
      <g transform="translate(48.560937 257.056249) scale(0.09 -0.09)">
       <defs>
        <path id="DejaVuSans-2e" d="M 684 794 
L 1344 794 
L 1344 0 
L 684 0 
L 684 794 
z
" transform="scale(0.015625)"/>
        <path id="DejaVuSans-30" d="M 2034 4250 
Q 1547 4250 1301 3770 
Q 1056 3291 1056 2328 
Q 1056 1369 1301 889 
Q 1547 409 2034 409 
Q 2525 409 2770 889 
Q 3016 1369 3016 2328 
Q 3016 3291 2770 3770 
Q 2525 4250 2034 4250 
z
M 2034 4750 
Q 2819 4750 3233 4129 
Q 3647 3509 3647 2328 
Q 3647 1150 3233 529 
Q 2819 -91 2034 -91 
Q 1250 -91 836 529 
Q 422 1150 422 2328 
Q 422 3509 836 4129 
Q 1250 4750 2034 4750 
z
" transform="scale(0.015625)"/>
       </defs>
       <use xlink:href="#DejaVuSans-32"/>
       <use xlink:href="#DejaVuSans-36" x="63.623047"/>
       <use xlink:href="#DejaVuSans-2e" x="127.246094"/>
       <use xlink:href="#DejaVuSans-30" x="159.033203"/>
      </g>
     </g>
    </g>
    <g id="ytick_2">
     <g id="line2d_13">
      <path d="M 75.6 215.15631 
L 499.68 215.15631 
" clip-path="url(#p642eb563d8)" style="fill: none; stroke: #b0b0b0; stroke-opacity: 0.25; stroke-width: 0.8; stroke-linecap: square"/>
     </g>
     <g id="line2d_14">
      <g>
       <use xlink:href="#mac032ef414" x="75.6" y="215.15631" style="stroke: #000000; stroke-width: 0.8"/>
      </g>
     </g>
     <g id="text_8">
      <!-- 26.5 -->
      <g transform="translate(48.560937 218.575607) scale(0.09 -0.09)">
       <defs>
        <path id="DejaVuSans-35" d="M 691 4666 
L 3169 4666 
L 3169 4134 
L 1269 4134 
L 1269 2991 
Q 1406 3038 1543 3061 
Q 1681 3084 1819 3084 
Q 2600 3084 3056 2656 
Q 3513 2228 3513 1497 
Q 3513 744 3044 326 
Q 2575 -91 1722 -91 
Q 1428 -91 1123 -41 
Q 819 9 494 109 
L 494 744 
Q 775 591 1075 516 
Q 1375 441 1709 441 
Q 2250 441 2565 725 
Q 2881 1009 2881 1497 
Q 2881 1984 2565 2268 
Q 2250 2553 1709 2553 
Q 1456 2553 1204 2497 
Q 953 2441 691 2322 
L 691 4666 
z
" transform="scale(0.015625)"/>
       </defs>
       <use xlink:href="#DejaVuSans-32"/>
       <use xlink:href="#DejaVuSans-36" x="63.623047"/>
       <use xlink:href="#DejaVuSans-2e" x="127.246094"/>
       <use xlink:href="#DejaVuSans-35" x="159.033203"/>
      </g>
     </g>
    </g>
    <g id="ytick_3">
     <g id="line2d_15">
      <path d="M 75.6 176.675669 
L 499.68 176.675669 
" clip-path="url(#p642eb563d8)" style="fill: none; stroke: #b0b0b0; stroke-opacity: 0.25; stroke-width: 0.8; stroke-linecap: square"/>
     </g>
     <g id="line2d_16">
      <g>
       <use xlink:href="#mac032ef414" x="75.6" y="176.675669" style="stroke: #000000; stroke-width: 0.8"/>
      </g>
     </g>
     <g id="text_9">
      <!-- 27.0 -->
      <g transform="translate(48.560937 180.094965) scale(0.09 -0.09)">
       <defs>
        <path id="DejaVuSans-37" d="M 525 4666 
L 3525 4666 
L 3525 4397 
L 1831 0 
L 1172 0 
L 2766 4134 
L 525 4134 
L 525 4666 
z
" transform="scale(0.015625)"/>
       </defs>
       <use xlink:href="#DejaVuSans-32"/>
       <use xlink:href="#DejaVuSans-37" x="63.623047"/>
       <use xlink:href="#DejaVuSans-2e" x="127.246094"/>
       <use xlink:href="#DejaVuSans-30" x="159.033203"/>
      </g>
     </g>
    </g>
    <g id="ytick_4">
     <g id="line2d_17">
      <path d="M 75.6 138.195027 
L 499.68 138.195027 
" clip-path="url(#p642eb563d8)" style="fill: none; stroke: #b0b0b0; stroke-opacity: 0.25; stroke-width: 0.8; stroke-linecap: square"/>
     </g>
     <g id="line2d_18">
      <g>
       <use xlink:href="#mac032ef414" x="75.6" y="138.195027" style="stroke: #000000; stroke-width: 0.8"/>
      </g>
     </g>
     <g id="text_10">
      <!-- 27.5 -->
      <g transform="translate(48.560937 141.614324) scale(0.09 -0.09)">
       <use xlink:href="#DejaVuSans-32"/>
       <use xlink:href="#DejaVuSans-37" x="63.623047"/>
       <use xlink:href="#DejaVuSans-2e" x="127.246094"/>
       <use xlink:href="#DejaVuSans-35" x="159.033203"/>
      </g>
     </g>
    </g>
    <g id="ytick_5">
     <g id="line2d_19">
      <path d="M 75.6 99.714385 
L 499.68 99.714385 
" clip-path="url(#p642eb563d8)" style="fill: none; stroke: #b0b0b0; stroke-opacity: 0.25; stroke-width: 0.8; stroke-linecap: square"/>
     </g>
     <g id="line2d_20">
      <g>
       <use xlink:href="#mac032ef414" x="75.6" y="99.714385" style="stroke: #000000; stroke-width: 0.8"/>
      </g>
     </g>
     <g id="text_11">
      <!-- 28.0 -->
      <g transform="translate(48.560937 103.133682) scale(0.09 -0.09)">
       <use xlink:href="#DejaVuSans-32"/>
       <use xlink:href="#DejaVuSans-38" x="63.623047"/>
       <use xlink:href="#DejaVuSans-2e" x="127.246094"/>
       <use xlink:href="#DejaVuSans-30" x="159.033203"/>
      </g>
     </g>
    </g>
    <g id="ytick_6">
     <g id="line2d_21">
      <path d="M 75.6 61.233744 
L 499.68 61.233744 
" clip-path="url(#p642eb563d8)" style="fill: none; stroke: #b0b0b0; stroke-opacity: 0.25; stroke-width: 0.8; stroke-linecap: square"/>
     </g>
     <g id="line2d_22">
      <g>
       <use xlink:href="#mac032ef414" x="75.6" y="61.233744" style="stroke: #000000; stroke-width: 0.8"/>
      </g>
     </g>
     <g id="text_12">
      <!-- 28.5 -->
      <g transform="translate(48.560937 64.653041) scale(0.09 -0.09)">
       <use xlink:href="#DejaVuSans-32"/>
       <use xlink:href="#DejaVuSans-38" x="63.623047"/>
       <use xlink:href="#DejaVuSans-2e" x="127.246094"/>
       <use xlink:href="#DejaVuSans-35" x="159.033203"/>
      </g>
     </g>
    </g>
    <g id="ytick_7">
     <g id="line2d_23">
      <path d="M 75.6 22.753102 
L 499.68 22.753102 
" clip-path="url(#p642eb563d8)" style="fill: none; stroke: #b0b0b0; stroke-opacity: 0.25; stroke-width: 0.8; stroke-linecap: square"/>
     </g>
     <g id="line2d_24">
      <g>
       <use xlink:href="#mac032ef414" x="75.6" y="22.753102" style="stroke: #000000; stroke-width: 0.8"/>
      </g>
     </g>
     <g id="text_13">
      <!-- 29.0 -->
      <g transform="translate(48.560937 26.172399) scale(0.09 -0.09)">
       <defs>
        <path id="DejaVuSans-39" d="M 703 97 
L 703 672 
Q 941 559 1184 500 
Q 1428 441 1663 441 
Q 2288 441 2617 861 
Q 2947 1281 2994 2138 
Q 2813 1869 2534 1725 
Q 2256 1581 1919 1581 
Q 1219 1581 811 2004 
Q 403 2428 403 3163 
Q 403 3881 828 4315 
Q 1253 4750 1959 4750 
Q 2769 4750 3195 4129 
Q 3622 3509 3622 2328 
Q 3622 1225 3098 567 
Q 2575 -91 1691 -91 
Q 1453 -91 1209 -44 
Q 966 3 703 97 
z
M 1959 2075 
Q 2384 2075 2632 2365 
Q 2881 2656 2881 3163 
Q 2881 3666 2632 3958 
Q 2384 4250 1959 4250 
Q 1534 4250 1286 3958 
Q 1038 3666 1038 3163 
Q 1038 2656 1286 2365 
Q 1534 2075 1959 2075 
z
" transform="scale(0.015625)"/>
       </defs>
       <use xlink:href="#DejaVuSans-32"/>
       <use xlink:href="#DejaVuSans-39" x="63.623047"/>
       <use xlink:href="#DejaVuSans-2e" x="127.246094"/>
       <use xlink:href="#DejaVuSans-30" x="159.033203"/>
      </g>
     </g>
    </g>
    <g id="text_14">
     <!-- PSNR усього кадру, дБ -->
     <g transform="translate(42.689219 191.582109) rotate(-90) scale(0.09 -0.09)">
      <defs>
       <path id="DejaVuSans-50" d="M 1259 4147 
L 1259 2394 
L 2053 2394 
Q 2494 2394 2734 2622 
Q 2975 2850 2975 3272 
Q 2975 3691 2734 3919 
Q 2494 4147 2053 4147 
L 1259 4147 
z
M 628 4666 
L 2053 4666 
Q 2838 4666 3239 4311 
Q 3641 3956 3641 3272 
Q 3641 2581 3239 2228 
Q 2838 1875 2053 1875 
L 1259 1875 
L 1259 0 
L 628 0 
L 628 4666 
z
" transform="scale(0.015625)"/>
       <path id="DejaVuSans-53" d="M 3425 4513 
L 3425 3897 
Q 3066 4069 2747 4153 
Q 2428 4238 2131 4238 
Q 1616 4238 1336 4038 
Q 1056 3838 1056 3469 
Q 1056 3159 1242 3001 
Q 1428 2844 1947 2747 
L 2328 2669 
Q 3034 2534 3370 2195 
Q 3706 1856 3706 1288 
Q 3706 609 3251 259 
Q 2797 -91 1919 -91 
Q 1588 -91 1214 -16 
Q 841 59 441 206 
L 441 856 
Q 825 641 1194 531 
Q 1563 422 1919 422 
Q 2459 422 2753 634 
Q 3047 847 3047 1241 
Q 3047 1584 2836 1778 
Q 2625 1972 2144 2069 
L 1759 2144 
Q 1053 2284 737 2584 
Q 422 2884 422 3419 
Q 422 4038 858 4394 
Q 1294 4750 2059 4750 
Q 2388 4750 2728 4690 
Q 3069 4631 3425 4513 
z
" transform="scale(0.015625)"/>
       <path id="DejaVuSans-4e" d="M 628 4666 
L 1478 4666 
L 3547 763 
L 3547 4666 
L 4159 4666 
L 4159 0 
L 3309 0 
L 1241 3903 
L 1241 0 
L 628 0 
L 628 4666 
z
" transform="scale(0.015625)"/>
       <path id="DejaVuSans-52" d="M 2841 2188 
Q 3044 2119 3236 1894 
Q 3428 1669 3622 1275 
L 4263 0 
L 3584 0 
L 2988 1197 
Q 2756 1666 2539 1819 
Q 2322 1972 1947 1972 
L 1259 1972 
L 1259 0 
L 628 0 
L 628 4666 
L 2053 4666 
Q 2853 4666 3247 4331 
Q 3641 3997 3641 3322 
Q 3641 2881 3436 2590 
Q 3231 2300 2841 2188 
z
M 1259 4147 
L 1259 2491 
L 2053 2491 
Q 2509 2491 2742 2702 
Q 2975 2913 2975 3322 
Q 2975 3731 2742 3939 
Q 2509 4147 2053 4147 
L 1259 4147 
z
" transform="scale(0.015625)"/>
       <path id="DejaVuSans-443" d="M 2059 -325 
Q 1816 -950 1584 -1140 
Q 1353 -1331 966 -1331 
L 506 -1331 
L 506 -850 
L 844 -850 
Q 1081 -850 1212 -737 
Q 1344 -625 1503 -206 
L 1606 56 
L 191 3500 
L 800 3500 
L 1894 763 
L 2988 3500 
L 3597 3500 
L 2059 -325 
z
" transform="scale(0.015625)"/>
       <path id="DejaVuSans-44c" d="M 2781 1038 
Q 2781 1319 2576 1466 
Q 2372 1613 1978 1613 
L 1159 1613 
L 1159 459 
L 1978 459 
Q 2372 459 2576 607 
Q 2781 756 2781 1038 
z
M 581 3500 
L 1159 3500 
L 1159 2072 
L 2003 2072 
Q 2672 2072 3033 1817 
Q 3394 1563 3394 1038 
Q 3394 513 3033 256 
Q 2672 0 2003 0 
L 581 0 
L 581 3500 
z
" transform="scale(0.015625)"/>
       <path id="DejaVuSans-433" d="M 581 0 
L 581 3500 
L 3050 3500 
L 3050 3041 
L 1159 3041 
L 1159 0 
L 581 0 
z
" transform="scale(0.015625)"/>
       <path id="DejaVuSans-411" d="M 3272 1372 
Q 3272 1806 3026 2017 
Q 2781 2228 2272 2228 
L 1259 2228 
L 1259 519 
L 2272 519 
Q 2781 519 3026 730 
Q 3272 941 3272 1372 
z
M 3609 4666 
L 3609 4147 
L 1259 4147 
L 1259 2747 
L 2303 2747 
Q 3088 2747 3513 2406 
Q 3938 2066 3938 1372 
Q 3938 681 3527 340 
Q 3116 0 2303 0 
L 628 0 
L 628 4666 
L 3609 4666 
z
" transform="scale(0.015625)"/>
      </defs>
      <use xlink:href="#DejaVuSans-50"/>
      <use xlink:href="#DejaVuSans-53" x="60.302734"/>
      <use xlink:href="#DejaVuSans-4e" x="123.779297"/>
      <use xlink:href="#DejaVuSans-52" x="198.583984"/>
      <use xlink:href="#DejaVuSans-20" x="268.066406"/>
      <use xlink:href="#DejaVuSans-443" x="299.853516"/>
      <use xlink:href="#DejaVuSans-441" x="359.033203"/>
      <use xlink:href="#DejaVuSans-44c" x="414.013672"/>
      <use xlink:href="#DejaVuSans-43e" x="472.949219"/>
      <use xlink:href="#DejaVuSans-433" x="534.130859"/>
      <use xlink:href="#DejaVuSans-43e" x="586.669922"/>
      <use xlink:href="#DejaVuSans-20" x="647.851562"/>
      <use xlink:href="#DejaVuSans-43a" x="679.638672"/>
      <use xlink:href="#DejaVuSans-430" x="740.039062"/>
      <use xlink:href="#DejaVuSans-434" x="801.318359"/>
      <use xlink:href="#DejaVuSans-440" x="870.458984"/>
      <use xlink:href="#DejaVuSans-443" x="933.935547"/>
      <use xlink:href="#DejaVuSans-2c" x="993.115234"/>
      <use xlink:href="#DejaVuSans-20" x="1024.902344"/>
      <use xlink:href="#DejaVuSans-434" x="1056.689453"/>
      <use xlink:href="#DejaVuSans-411" x="1125.830078"/>
     </g>
    </g>
   </g>
   <g id="line2d_25">
    <path d="M 480.403636 137.830313 
" clip-path="url(#p642eb563d8)" style="fill: none; stroke: #2e7d32; stroke-width: 1.5; stroke-linecap: square"/>
    <defs>
     <path id="mca16692d70" d="M 0 3 
C 0.795609 3 1.55874 2.683901 2.12132 2.12132 
C 2.683901 1.55874 3 0.795609 3 0 
C 3 -0.795609 2.683901 -1.55874 2.12132 -2.12132 
C 1.55874 -2.683901 0.795609 -3 0 -3 
C -0.795609 -3 -1.55874 -2.683901 -2.12132 -2.12132 
C -2.683901 -1.55874 -3 -0.795609 -3 0 
C -3 0.795609 -2.683901 1.55874 -2.12132 2.12132 
C -1.55874 2.683901 -0.795609 3 0 3 
z
" style="stroke: #2e7d32"/>
    </defs>
    <g clip-path="url(#p642eb563d8)">
     <use xlink:href="#mca16692d70" x="480.403636" y="137.830313" style="fill: #2e7d32; stroke: #2e7d32"/>
    </g>
   </g>
   <g id="patch_7">
    <path d="M 75.6 254.254313 
L 75.6 21.406313 
" style="fill: none; stroke: #000000; stroke-width: 0.8; stroke-linejoin: miter; stroke-linecap: square"/>
   </g>
   <g id="patch_8">
    <path d="M 499.68 254.254313 
L 499.68 21.406313 
" style="fill: none; stroke: #000000; stroke-width: 0.8; stroke-linejoin: miter; stroke-linecap: square"/>
   </g>
   <g id="patch_9">
    <path d="M 75.6 254.254313 
L 499.68 254.254313 
" style="fill: none; stroke: #000000; stroke-width: 0.8; stroke-linejoin: miter; stroke-linecap: square"/>
   </g>
   <g id="patch_10">
    <path d="M 75.6 21.406313 
L 499.68 21.406313 
" style="fill: none; stroke: #000000; stroke-width: 0.8; stroke-linejoin: miter; stroke-linecap: square"/>
   </g>
   <g id="text_15">
    <!-- недопустимо -->
    <g style="fill: #455a64" transform="translate(131.85586 162.212734) rotate(-90) scale(0.07 -0.07)">
     <use xlink:href="#DejaVuSans-43d"/>
     <use xlink:href="#DejaVuSans-435" x="65.380859"/>
     <use xlink:href="#DejaVuSans-434" x="126.904297"/>
     <use xlink:href="#DejaVuSans-43e" x="196.044922"/>
     <use xlink:href="#DejaVuSans-43f" x="257.226562"/>
     <use xlink:href="#DejaVuSans-443" x="322.607422"/>
     <use xlink:href="#DejaVuSans-441" x="381.787109"/>
     <use xlink:href="#DejaVuSans-442" x="436.767578"/>
     <use xlink:href="#DejaVuSans-438" x="495.019531"/>
     <use xlink:href="#DejaVuSans-43c" x="560.009766"/>
     <use xlink:href="#DejaVuSans-43e" x="635.449219"/>
    </g>
   </g>
   <g id="text_16">
    <!-- недопустимо -->
    <g style="fill: #455a64" transform="translate(219.475695 162.212734) rotate(-90) scale(0.07 -0.07)">
     <use xlink:href="#DejaVuSans-43d"/>
     <use xlink:href="#DejaVuSans-435" x="65.380859"/>
     <use xlink:href="#DejaVuSans-434" x="126.904297"/>
     <use xlink:href="#DejaVuSans-43e" x="196.044922"/>
     <use xlink:href="#DejaVuSans-43f" x="257.226562"/>
     <use xlink:href="#DejaVuSans-443" x="322.607422"/>
     <use xlink:href="#DejaVuSans-441" x="381.787109"/>
     <use xlink:href="#DejaVuSans-442" x="436.767578"/>
     <use xlink:href="#DejaVuSans-438" x="495.019531"/>
     <use xlink:href="#DejaVuSans-43c" x="560.009766"/>
     <use xlink:href="#DejaVuSans-43e" x="635.449219"/>
    </g>
   </g>
   <g id="text_17">
    <!-- недопустимо -->
    <g style="fill: #455a64" transform="translate(307.095529 162.212734) rotate(-90) scale(0.07 -0.07)">
     <use xlink:href="#DejaVuSans-43d"/>
     <use xlink:href="#DejaVuSans-435" x="65.380859"/>
     <use xlink:href="#DejaVuSans-434" x="126.904297"/>
     <use xlink:href="#DejaVuSans-43e" x="196.044922"/>
     <use xlink:href="#DejaVuSans-43f" x="257.226562"/>
     <use xlink:href="#DejaVuSans-443" x="322.607422"/>
     <use xlink:href="#DejaVuSans-441" x="381.787109"/>
     <use xlink:href="#DejaVuSans-442" x="436.767578"/>
     <use xlink:href="#DejaVuSans-438" x="495.019531"/>
     <use xlink:href="#DejaVuSans-43c" x="560.009766"/>
     <use xlink:href="#DejaVuSans-43e" x="635.449219"/>
    </g>
   </g>
   <g id="text_18">
    <!-- недопустимо -->
    <g style="fill: #455a64" transform="translate(394.715364 162.212734) rotate(-90) scale(0.07 -0.07)">
     <use xlink:href="#DejaVuSans-43d"/>
     <use xlink:href="#DejaVuSans-435" x="65.380859"/>
     <use xlink:href="#DejaVuSans-434" x="126.904297"/>
     <use xlink:href="#DejaVuSans-43e" x="196.044922"/>
     <use xlink:href="#DejaVuSans-43f" x="257.226562"/>
     <use xlink:href="#DejaVuSans-443" x="322.607422"/>
     <use xlink:href="#DejaVuSans-441" x="381.787109"/>
     <use xlink:href="#DejaVuSans-442" x="436.767578"/>
     <use xlink:href="#DejaVuSans-438" x="495.019531"/>
     <use xlink:href="#DejaVuSans-43c" x="560.009766"/>
     <use xlink:href="#DejaVuSans-43e" x="635.449219"/>
    </g>
   </g>
   <g id="text_19">
    <!-- G33. Вікно й затримка -->
    <g transform="translate(224.001 15.406313) scale(0.108 -0.108)">
     <defs>
      <path id="DejaVuSans-47" d="M 3809 666 
L 3809 1919 
L 2778 1919 
L 2778 2438 
L 4434 2438 
L 4434 434 
Q 4069 175 3628 42 
Q 3188 -91 2688 -91 
Q 1594 -91 976 548 
Q 359 1188 359 2328 
Q 359 3472 976 4111 
Q 1594 4750 2688 4750 
Q 3144 4750 3555 4637 
Q 3966 4525 4313 4306 
L 4313 3634 
Q 3963 3931 3569 4081 
Q 3175 4231 2741 4231 
Q 1884 4231 1454 3753 
Q 1025 3275 1025 2328 
Q 1025 1384 1454 906 
Q 1884 428 2741 428 
Q 3075 428 3337 486 
Q 3600 544 3809 666 
z
" transform="scale(0.015625)"/>
      <path id="DejaVuSans-412" d="M 1259 2228 
L 1259 519 
L 2272 519 
Q 2781 519 3026 730 
Q 3272 941 3272 1375 
Q 3272 1813 3026 2020 
Q 2781 2228 2272 2228 
L 1259 2228 
z
M 1259 4147 
L 1259 2741 
L 2194 2741 
Q 2656 2741 2882 2914 
Q 3109 3088 3109 3444 
Q 3109 3797 2882 3972 
Q 2656 4147 2194 4147 
L 1259 4147 
z
M 628 4666 
L 2241 4666 
Q 2963 4666 3353 4366 
Q 3744 4066 3744 3513 
Q 3744 3084 3544 2831 
Q 3344 2578 2956 2516 
Q 3422 2416 3680 2098 
Q 3938 1781 3938 1306 
Q 3938 681 3513 340 
Q 3088 0 2303 0 
L 628 0 
L 628 4666 
z
" transform="scale(0.015625)"/>
     </defs>
     <use xlink:href="#DejaVuSans-47"/>
     <use xlink:href="#DejaVuSans-33" x="77.490234"/>
     <use xlink:href="#DejaVuSans-33" x="141.113281"/>
     <use xlink:href="#DejaVuSans-2e" x="204.736328"/>
     <use xlink:href="#DejaVuSans-20" x="236.523438"/>
     <use xlink:href="#DejaVuSans-412" x="268.310547"/>
     <use xlink:href="#DejaVuSans-456" x="336.914062"/>
     <use xlink:href="#DejaVuSans-43a" x="364.697266"/>
     <use xlink:href="#DejaVuSans-43d" x="425.097656"/>
     <use xlink:href="#DejaVuSans-43e" x="490.478516"/>
     <use xlink:href="#DejaVuSans-20" x="551.660156"/>
     <use xlink:href="#DejaVuSans-439" x="583.447266"/>
     <use xlink:href="#DejaVuSans-20" x="648.4375"/>
     <use xlink:href="#DejaVuSans-437" x="680.224609"/>
     <use xlink:href="#DejaVuSans-430" x="733.398438"/>
     <use xlink:href="#DejaVuSans-442" x="794.677734"/>
     <use xlink:href="#DejaVuSans-440" x="852.929688"/>
     <use xlink:href="#DejaVuSans-438" x="916.40625"/>
     <use xlink:href="#DejaVuSans-43c" x="981.396484"/>
     <use xlink:href="#DejaVuSans-43a" x="1056.835938"/>
     <use xlink:href="#DejaVuSans-430" x="1117.236328"/>
    </g>
   </g>
  </g>
  <g id="axes_2">
   <g id="matplotlib.axis_3">
    <g id="ytick_8">
     <g id="line2d_26">
      <defs>
       <path id="m74539bd71d" d="M 0 0 
L 3.5 0 
" style="stroke: #000000; stroke-width: 0.8"/>
      </defs>
      <g>
       <use xlink:href="#m74539bd71d" x="499.68" y="227.510291" style="stroke: #000000; stroke-width: 0.8"/>
      </g>
     </g>
     <g id="text_20">
      <!-- 5 -->
      <g transform="translate(506.68 230.929587) scale(0.09 -0.09)">
       <use xlink:href="#DejaVuSans-35"/>
      </g>
     </g>
    </g>
    <g id="ytick_9">
     <g id="line2d_27">
      <g>
       <use xlink:href="#m74539bd71d" x="499.68" y="198.424578" style="stroke: #000000; stroke-width: 0.8"/>
      </g>
     </g>
     <g id="text_21">
      <!-- 10 -->
      <g transform="translate(506.68 201.843875) scale(0.09 -0.09)">
       <use xlink:href="#DejaVuSans-31"/>
       <use xlink:href="#DejaVuSans-30" x="63.623047"/>
      </g>
     </g>
    </g>
    <g id="ytick_10">
     <g id="line2d_28">
      <g>
       <use xlink:href="#m74539bd71d" x="499.68" y="169.338865" style="stroke: #000000; stroke-width: 0.8"/>
      </g>
     </g>
     <g id="text_22">
      <!-- 15 -->
      <g transform="translate(506.68 172.758162) scale(0.09 -0.09)">
       <use xlink:href="#DejaVuSans-31"/>
       <use xlink:href="#DejaVuSans-35" x="63.623047"/>
      </g>
     </g>
    </g>
    <g id="ytick_11">
     <g id="line2d_29">
      <g>
       <use xlink:href="#m74539bd71d" x="499.68" y="140.253152" style="stroke: #000000; stroke-width: 0.8"/>
      </g>
     </g>
     <g id="text_23">
      <!-- 20 -->
      <g transform="translate(506.68 143.672449) scale(0.09 -0.09)">
       <use xlink:href="#DejaVuSans-32"/>
       <use xlink:href="#DejaVuSans-30" x="63.623047"/>
      </g>
     </g>
    </g>
    <g id="ytick_12">
     <g id="line2d_30">
      <g>
       <use xlink:href="#m74539bd71d" x="499.68" y="111.16744" style="stroke: #000000; stroke-width: 0.8"/>
      </g>
     </g>
     <g id="text_24">
      <!-- 25 -->
      <g transform="translate(506.68 114.586737) scale(0.09 -0.09)">
       <use xlink:href="#DejaVuSans-32"/>
       <use xlink:href="#DejaVuSans-35" x="63.623047"/>
      </g>
     </g>
    </g>
    <g id="ytick_13">
     <g id="line2d_31">
      <g>
       <use xlink:href="#m74539bd71d" x="499.68" y="82.081727" style="stroke: #000000; stroke-width: 0.8"/>
      </g>
     </g>
     <g id="text_25">
      <!-- 30 -->
      <g transform="translate(506.68 85.501024) scale(0.09 -0.09)">
       <use xlink:href="#DejaVuSans-33"/>
       <use xlink:href="#DejaVuSans-30" x="63.623047"/>
      </g>
     </g>
    </g>
    <g id="ytick_14">
     <g id="line2d_32">
      <g>
       <use xlink:href="#m74539bd71d" x="499.68" y="52.996014" style="stroke: #000000; stroke-width: 0.8"/>
      </g>
     </g>
     <g id="text_26">
      <!-- 35 -->
      <g transform="translate(506.68 56.415311) scale(0.09 -0.09)">
       <use xlink:href="#DejaVuSans-33"/>
       <use xlink:href="#DejaVuSans-35" x="63.623047"/>
      </g>
     </g>
    </g>
    <g id="ytick_15">
     <g id="line2d_33">
      <g>
       <use xlink:href="#m74539bd71d" x="499.68" y="23.910302" style="stroke: #000000; stroke-width: 0.8"/>
      </g>
     </g>
     <g id="text_27">
      <!-- 40 -->
      <g transform="translate(506.68 27.329598) scale(0.09 -0.09)">
       <use xlink:href="#DejaVuSans-34"/>
       <use xlink:href="#DejaVuSans-30" x="63.623047"/>
      </g>
     </g>
    </g>
    <g id="text_28">
     <!-- накопичення вікна, мс -->
     <g transform="translate(528.971094 191.365547) rotate(-90) scale(0.09 -0.09)">
      <defs>
       <path id="DejaVuSans-447" d="M 2625 0 
L 2625 1472 
L 1553 1472 
Q 1075 1472 756 1769 
Q 469 2038 469 2613 
L 469 3500 
L 1044 3500 
L 1044 2666 
Q 1044 2300 1206 2116 
Q 1372 1931 1697 1931 
L 2625 1931 
L 2625 3500 
L 3200 3500 
L 3200 0 
L 2625 0 
z
" transform="scale(0.015625)"/>
      </defs>
      <use xlink:href="#DejaVuSans-43d"/>
      <use xlink:href="#DejaVuSans-430" x="65.380859"/>
      <use xlink:href="#DejaVuSans-43a" x="126.660156"/>
      <use xlink:href="#DejaVuSans-43e" x="187.060547"/>
      <use xlink:href="#DejaVuSans-43f" x="248.242188"/>
      <use xlink:href="#DejaVuSans-438" x="313.623047"/>
      <use xlink:href="#DejaVuSans-447" x="378.613281"/>
      <use xlink:href="#DejaVuSans-435" x="437.695312"/>
      <use xlink:href="#DejaVuSans-43d" x="499.21875"/>
      <use xlink:href="#DejaVuSans-43d" x="564.599609"/>
      <use xlink:href="#DejaVuSans-44f" x="629.980469"/>
      <use xlink:href="#DejaVuSans-20" x="690.136719"/>
      <use xlink:href="#DejaVuSans-432" x="721.923828"/>
      <use xlink:href="#DejaVuSans-456" x="780.859375"/>
      <use xlink:href="#DejaVuSans-43a" x="808.642578"/>
      <use xlink:href="#DejaVuSans-43d" x="869.042969"/>
      <use xlink:href="#DejaVuSans-430" x="934.423828"/>
      <use xlink:href="#DejaVuSans-2c" x="995.703125"/>
      <use xlink:href="#DejaVuSans-20" x="1027.490234"/>
      <use xlink:href="#DejaVuSans-43c" x="1059.277344"/>
      <use xlink:href="#DejaVuSans-441" x="1134.716797"/>
     </g>
    </g>
   </g>
   <g id="line2d_34">
    <path d="M 129.924298 243.670313 
L 217.544132 230.744622 
L 305.163967 204.887423 
L 392.783802 153.178843 
L 480.403636 31.990313 
" clip-path="url(#p642eb563d8)" style="fill: none; stroke-dasharray: 5.55,2.4; stroke-dashoffset: 0; stroke: #1976d2; stroke-width: 1.5"/>
    <defs>
     <path id="ma4d7031ee4" d="M -3 3 
L 3 3 
L 3 -3 
L -3 -3 
z
" style="stroke: #1976d2; stroke-linejoin: miter"/>
    </defs>
    <g clip-path="url(#p642eb563d8)">
     <use xlink:href="#ma4d7031ee4" x="129.924298" y="243.670313" style="fill: #1976d2; stroke: #1976d2; stroke-linejoin: miter"/>
     <use xlink:href="#ma4d7031ee4" x="217.544132" y="230.744622" style="fill: #1976d2; stroke: #1976d2; stroke-linejoin: miter"/>
     <use xlink:href="#ma4d7031ee4" x="305.163967" y="204.887423" style="fill: #1976d2; stroke: #1976d2; stroke-linejoin: miter"/>
     <use xlink:href="#ma4d7031ee4" x="392.783802" y="153.178843" style="fill: #1976d2; stroke: #1976d2; stroke-linejoin: miter"/>
     <use xlink:href="#ma4d7031ee4" x="480.403636" y="31.990313" style="fill: #1976d2; stroke: #1976d2; stroke-linejoin: miter"/>
    </g>
   </g>
   <g id="patch_11">
    <path d="M 75.6 254.254313 
L 75.6 21.406313 
" style="fill: none; stroke: #000000; stroke-width: 0.8; stroke-linejoin: miter; stroke-linecap: square"/>
   </g>
   <g id="patch_12">
    <path d="M 499.68 254.254313 
L 499.68 21.406313 
" style="fill: none; stroke: #000000; stroke-width: 0.8; stroke-linejoin: miter; stroke-linecap: square"/>
   </g>
   <g id="patch_13">
    <path d="M 75.6 254.254313 
L 499.68 254.254313 
" style="fill: none; stroke: #000000; stroke-width: 0.8; stroke-linejoin: miter; stroke-linecap: square"/>
   </g>
   <g id="patch_14">
    <path d="M 75.6 21.406313 
L 499.68 21.406313 
" style="fill: none; stroke: #000000; stroke-width: 0.8; stroke-linejoin: miter; stroke-linecap: square"/>
   </g>
  </g>
  <g id="text_29">
   <!-- сірі смуги - недопустимі вікна (4 з 5): за двох описів одиниця не вміщується у вікно такої висоти, тому BAWP тут вимагає буферизації всього растру і НЕ -->
   <g style="fill: #555555" transform="translate(7.2 298.616) scale(0.065 -0.065)">
    <defs>
     <path id="DejaVuSans-2d" d="M 313 2009 
L 1997 2009 
L 1997 1497 
L 313 1497 
L 313 2009 
z
" transform="scale(0.015625)"/>
     <path id="DejaVuSans-28" d="M 1984 4856 
Q 1566 4138 1362 3434 
Q 1159 2731 1159 2009 
Q 1159 1288 1364 580 
Q 1569 -128 1984 -844 
L 1484 -844 
Q 1016 -109 783 600 
Q 550 1309 550 2009 
Q 550 2706 781 3412 
Q 1013 4119 1484 4856 
L 1984 4856 
z
" transform="scale(0.015625)"/>
     <path id="DejaVuSans-29" d="M 513 4856 
L 1013 4856 
Q 1481 4119 1714 3412 
Q 1947 2706 1947 2009 
Q 1947 1309 1714 600 
Q 1481 -109 1013 -844 
L 513 -844 
Q 928 -128 1133 580 
Q 1338 1288 1338 2009 
Q 1338 2731 1133 3434 
Q 928 4138 513 4856 
z
" transform="scale(0.015625)"/>
     <path id="DejaVuSans-3a" d="M 750 794 
L 1409 794 
L 1409 0 
L 750 0 
L 750 794 
z
M 750 3309 
L 1409 3309 
L 1409 2516 
L 750 2516 
L 750 3309 
z
" transform="scale(0.015625)"/>
     <path id="DejaVuSans-445" d="M 3513 3500 
L 2247 1797 
L 3578 0 
L 2900 0 
L 1881 1375 
L 863 0 
L 184 0 
L 1544 1831 
L 300 3500 
L 978 3500 
L 1906 2253 
L 2834 3500 
L 3513 3500 
z
" transform="scale(0.015625)"/>
     <path id="DejaVuSans-446" d="M 3603 0 
L 581 0 
L 581 3500 
L 1159 3500 
L 1159 459 
L 3025 459 
L 3025 3500 
L 3603 3500 
L 3603 459 
L 4063 459 
L 4063 -884 
L 3603 -884 
L 3603 0 
z
" transform="scale(0.015625)"/>
     <path id="DejaVuSans-454" d="M 2113 3584 
Q 2631 3584 3122 3366 
L 3122 2828 
Q 2619 3097 2138 3097 
Q 1516 3097 1267 2748 
Q 1019 2400 981 2072 
L 2738 2072 
L 2738 1613 
L 963 1613 
Q 1022 931 1350 664 
Q 1678 397 2138 397 
Q 2628 397 3122 666 
L 3122 134 
Q 2663 -91 2072 -91 
Q 1269 -91 811 406 
Q 353 903 353 1747 
Q 353 2594 823 3089 
Q 1294 3584 2113 3584 
z
" transform="scale(0.015625)"/>
     <path id="DejaVuSans-457" d="M 603 3500 
L 1178 3500 
L 1178 0 
L 603 0 
L 603 3500 
z
M 891 3584 
L 891 3584 
z
M 1182 4850 
L 1816 4850 
L 1816 4219 
L 1182 4219 
L 1182 4850 
z
M -40 4850 
L 594 4850 
L 594 4219 
L -40 4219 
L -40 4850 
z
" transform="scale(0.015625)"/>
     <path id="DejaVuSans-42" d="M 1259 2228 
L 1259 519 
L 2272 519 
Q 2781 519 3026 730 
Q 3272 941 3272 1375 
Q 3272 1813 3026 2020 
Q 2781 2228 2272 2228 
L 1259 2228 
z
M 1259 4147 
L 1259 2741 
L 2194 2741 
Q 2656 2741 2882 2914 
Q 3109 3088 3109 3444 
Q 3109 3797 2882 3972 
Q 2656 4147 2194 4147 
L 1259 4147 
z
M 628 4666 
L 2241 4666 
Q 2963 4666 3353 4366 
Q 3744 4066 3744 3513 
Q 3744 3084 3544 2831 
Q 3344 2578 2956 2516 
Q 3422 2416 3680 2098 
Q 3938 1781 3938 1306 
Q 3938 681 3513 340 
Q 3088 0 2303 0 
L 628 0 
L 628 4666 
z
" transform="scale(0.015625)"/>
     <path id="DejaVuSans-41" d="M 2188 4044 
L 1331 1722 
L 3047 1722 
L 2188 4044 
z
M 1831 4666 
L 2547 4666 
L 4325 0 
L 3669 0 
L 3244 1197 
L 1141 1197 
L 716 0 
L 50 0 
L 1831 4666 
z
" transform="scale(0.015625)"/>
     <path id="DejaVuSans-57" d="M 213 4666 
L 850 4666 
L 1831 722 
L 2809 4666 
L 3519 4666 
L 4500 722 
L 5478 4666 
L 6119 4666 
L 4947 0 
L 4153 0 
L 3169 4050 
L 2175 0 
L 1381 0 
L 213 4666 
z
" transform="scale(0.015625)"/>
     <path id="DejaVuSans-431" d="M 1991 3584 
Q 2741 3584 3169 3096 
Q 3597 2609 3597 1747 
Q 3597 888 3169 398 
Q 2741 -91 1991 -91 
Q 1238 -91 822 384 
Q 406 859 384 1747 
L 366 2463 
Q 350 2834 350 2963 
Q 350 3463 531 3831 
Q 816 4409 1308 4659 
Q 1800 4909 2625 4916 
Q 3006 4919 3175 4972 
L 3334 4516 
Q 3181 4453 3041 4450 
L 2259 4397 
Q 1866 4369 1628 4231 
Q 1006 3866 947 3388 
L 925 3213 
Q 1331 3584 1991 3584 
z
M 1991 3097 
Q 1528 3097 1259 2736 
Q 991 2375 991 1747 
Q 991 1119 1258 758 
Q 1525 397 1991 397 
Q 2450 397 2719 759 
Q 2988 1122 2988 1747 
Q 2988 2369 2719 2733 
Q 2450 3097 1991 3097 
z
" transform="scale(0.015625)"/>
     <path id="DejaVuSans-444" d="M 947 1747 
Q 947 1013 1173 702 
Q 1400 391 1784 391 
Q 2091 391 2447 916 
L 2447 2578 
Q 2091 3103 1784 3103 
Q 1400 3103 1173 2792 
Q 947 2481 947 1747 
z
M 2447 -1331 
L 2447 447 
Q 2269 153 2064 31 
Q 1859 -91 1600 -91 
Q 1078 -91 714 392 
Q 350 875 350 1734 
Q 350 2594 714 3089 
Q 1078 3584 1600 3584 
Q 1859 3584 2064 3465 
Q 2269 3347 2447 3053 
L 2447 4666 
L 3025 4666 
L 3025 3053 
Q 3203 3347 3408 3465 
Q 3613 3584 3872 3584 
Q 4394 3584 4758 3089 
Q 5122 2594 5122 1734 
Q 5122 875 4758 392 
Q 4394 -91 3872 -91 
Q 3613 -91 3408 31 
Q 3203 153 3025 447 
L 3025 -1331 
L 2447 -1331 
z
M 4525 1747 
Q 4525 2481 4298 2792 
Q 4072 3103 3688 3103 
Q 3381 3103 3025 2578 
L 3025 916 
Q 3381 391 3688 391 
Q 4072 391 4298 702 
Q 4525 1013 4525 1747 
z
" transform="scale(0.015625)"/>
     <path id="DejaVuSans-41d" d="M 628 4666 
L 1259 4666 
L 1259 2753 
L 3553 2753 
L 3553 4666 
L 4184 4666 
L 4184 0 
L 3553 0 
L 3553 2222 
L 1259 2222 
L 1259 0 
L 628 0 
L 628 4666 
z
" transform="scale(0.015625)"/>
     <path id="DejaVuSans-415" d="M 628 4666 
L 3578 4666 
L 3578 4134 
L 1259 4134 
L 1259 2753 
L 3481 2753 
L 3481 2222 
L 1259 2222 
L 1259 531 
L 3634 531 
L 3634 0 
L 628 0 
L 628 4666 
z
" transform="scale(0.015625)"/>
    </defs>
    <use xlink:href="#DejaVuSans-441"/>
    <use xlink:href="#DejaVuSans-456" x="54.980469"/>
    <use xlink:href="#DejaVuSans-440" x="82.763672"/>
    <use xlink:href="#DejaVuSans-456" x="146.240234"/>
    <use xlink:href="#DejaVuSans-20" x="174.023438"/>
    <use xlink:href="#DejaVuSans-441" x="205.810547"/>
    <use xlink:href="#DejaVuSans-43c" x="260.791016"/>
    <use xlink:href="#DejaVuSans-443" x="336.230469"/>
    <use xlink:href="#DejaVuSans-433" x="395.410156"/>
    <use xlink:href="#DejaVuSans-438" x="447.949219"/>
    <use xlink:href="#DejaVuSans-20" x="512.939453"/>
    <use xlink:href="#DejaVuSans-2d" x="544.726562"/>
    <use xlink:href="#DejaVuSans-20" x="580.810547"/>
    <use xlink:href="#DejaVuSans-43d" x="612.597656"/>
    <use xlink:href="#DejaVuSans-435" x="677.978516"/>
    <use xlink:href="#DejaVuSans-434" x="739.501953"/>
    <use xlink:href="#DejaVuSans-43e" x="808.642578"/>
    <use xlink:href="#DejaVuSans-43f" x="869.824219"/>
    <use xlink:href="#DejaVuSans-443" x="935.205078"/>
    <use xlink:href="#DejaVuSans-441" x="994.384766"/>
    <use xlink:href="#DejaVuSans-442" x="1049.365234"/>
    <use xlink:href="#DejaVuSans-438" x="1107.617188"/>
    <use xlink:href="#DejaVuSans-43c" x="1172.607422"/>
    <use xlink:href="#DejaVuSans-456" x="1248.046875"/>
    <use xlink:href="#DejaVuSans-20" x="1275.830078"/>
    <use xlink:href="#DejaVuSans-432" x="1307.617188"/>
    <use xlink:href="#DejaVuSans-456" x="1366.552734"/>
    <use xlink:href="#DejaVuSans-43a" x="1394.335938"/>
    <use xlink:href="#DejaVuSans-43d" x="1454.736328"/>
    <use xlink:href="#DejaVuSans-430" x="1520.117188"/>
    <use xlink:href="#DejaVuSans-20" x="1581.396484"/>
    <use xlink:href="#DejaVuSans-28" x="1613.183594"/>
    <use xlink:href="#DejaVuSans-34" x="1652.197266"/>
    <use xlink:href="#DejaVuSans-20" x="1715.820312"/>
    <use xlink:href="#DejaVuSans-437" x="1747.607422"/>
    <use xlink:href="#DejaVuSans-20" x="1800.78125"/>
    <use xlink:href="#DejaVuSans-35" x="1832.568359"/>
    <use xlink:href="#DejaVuSans-29" x="1896.191406"/>
    <use xlink:href="#DejaVuSans-3a" x="1935.205078"/>
    <use xlink:href="#DejaVuSans-20" x="1968.896484"/>
    <use xlink:href="#DejaVuSans-437" x="2000.683594"/>
    <use xlink:href="#DejaVuSans-430" x="2053.857422"/>
    <use xlink:href="#DejaVuSans-20" x="2115.136719"/>
    <use xlink:href="#DejaVuSans-434" x="2146.923828"/>
    <use xlink:href="#DejaVuSans-432" x="2216.064453"/>
    <use xlink:href="#DejaVuSans-43e" x="2275"/>
    <use xlink:href="#DejaVuSans-445" x="2336.181641"/>
    <use xlink:href="#DejaVuSans-20" x="2395.361328"/>
    <use xlink:href="#DejaVuSans-43e" x="2427.148438"/>
    <use xlink:href="#DejaVuSans-43f" x="2488.330078"/>
    <use xlink:href="#DejaVuSans-438" x="2553.710938"/>
    <use xlink:href="#DejaVuSans-441" x="2618.701172"/>
    <use xlink:href="#DejaVuSans-456" x="2673.681641"/>
    <use xlink:href="#DejaVuSans-432" x="2701.464844"/>
    <use xlink:href="#DejaVuSans-20" x="2760.400391"/>
    <use xlink:href="#DejaVuSans-43e" x="2792.1875"/>
    <use xlink:href="#DejaVuSans-434" x="2853.369141"/>
    <use xlink:href="#DejaVuSans-438" x="2922.509766"/>
    <use xlink:href="#DejaVuSans-43d" x="2987.5"/>
    <use xlink:href="#DejaVuSans-438" x="3052.880859"/>
    <use xlink:href="#DejaVuSans-446" x="3117.871094"/>
    <use xlink:href="#DejaVuSans-44f" x="3185.9375"/>
    <use xlink:href="#DejaVuSans-20" x="3246.09375"/>
    <use xlink:href="#DejaVuSans-43d" x="3277.880859"/>
    <use xlink:href="#DejaVuSans-435" x="3343.261719"/>
    <use xlink:href="#DejaVuSans-20" x="3404.785156"/>
    <use xlink:href="#DejaVuSans-432" x="3436.572266"/>
    <use xlink:href="#DejaVuSans-43c" x="3495.507812"/>
    <use xlink:href="#DejaVuSans-456" x="3570.947266"/>
    <use xlink:href="#DejaVuSans-449" x="3598.730469"/>
    <use xlink:href="#DejaVuSans-443" x="3692.919922"/>
    <use xlink:href="#DejaVuSans-454" x="3752.099609"/>
    <use xlink:href="#DejaVuSans-442" x="3806.982422"/>
    <use xlink:href="#DejaVuSans-44c" x="3865.234375"/>
    <use xlink:href="#DejaVuSans-441" x="3924.169922"/>
    <use xlink:href="#DejaVuSans-44f" x="3979.150391"/>
    <use xlink:href="#DejaVuSans-20" x="4039.306641"/>
    <use xlink:href="#DejaVuSans-443" x="4071.09375"/>
    <use xlink:href="#DejaVuSans-20" x="4130.273438"/>
    <use xlink:href="#DejaVuSans-432" x="4162.060547"/>
    <use xlink:href="#DejaVuSans-456" x="4220.996094"/>
    <use xlink:href="#DejaVuSans-43a" x="4248.779297"/>
    <use xlink:href="#DejaVuSans-43d" x="4309.179688"/>
    <use xlink:href="#DejaVuSans-43e" x="4374.560547"/>
    <use xlink:href="#DejaVuSans-20" x="4435.742188"/>
    <use xlink:href="#DejaVuSans-442" x="4467.529297"/>
    <use xlink:href="#DejaVuSans-430" x="4525.78125"/>
    <use xlink:href="#DejaVuSans-43a" x="4587.060547"/>
    <use xlink:href="#DejaVuSans-43e" x="4647.460938"/>
    <use xlink:href="#DejaVuSans-457" x="4708.642578"/>
    <use xlink:href="#DejaVuSans-20" x="4736.425781"/>
    <use xlink:href="#DejaVuSans-432" x="4768.212891"/>
    <use xlink:href="#DejaVuSans-438" x="4827.148438"/>
    <use xlink:href="#DejaVuSans-441" x="4892.138672"/>
    <use xlink:href="#DejaVuSans-43e" x="4947.119141"/>
    <use xlink:href="#DejaVuSans-442" x="5008.300781"/>
    <use xlink:href="#DejaVuSans-438" x="5066.552734"/>
    <use xlink:href="#DejaVuSans-2c" x="5131.542969"/>
    <use xlink:href="#DejaVuSans-20" x="5163.330078"/>
    <use xlink:href="#DejaVuSans-442" x="5195.117188"/>
    <use xlink:href="#DejaVuSans-43e" x="5253.369141"/>
    <use xlink:href="#DejaVuSans-43c" x="5314.550781"/>
    <use xlink:href="#DejaVuSans-443" x="5389.990234"/>
    <use xlink:href="#DejaVuSans-20" x="5449.169922"/>
    <use xlink:href="#DejaVuSans-42" x="5480.957031"/>
    <use xlink:href="#DejaVuSans-41" x="5549.560547"/>
    <use xlink:href="#DejaVuSans-57" x="5612.46875"/>
    <use xlink:href="#DejaVuSans-50" x="5711.345703"/>
    <use xlink:href="#DejaVuSans-20" x="5771.648438"/>
    <use xlink:href="#DejaVuSans-442" x="5803.435547"/>
    <use xlink:href="#DejaVuSans-443" x="5861.6875"/>
    <use xlink:href="#DejaVuSans-442" x="5920.867188"/>
    <use xlink:href="#DejaVuSans-20" x="5979.119141"/>
    <use xlink:href="#DejaVuSans-432" x="6010.90625"/>
    <use xlink:href="#DejaVuSans-438" x="6069.841797"/>
    <use xlink:href="#DejaVuSans-43c" x="6134.832031"/>
    <use xlink:href="#DejaVuSans-430" x="6210.271484"/>
    <use xlink:href="#DejaVuSans-433" x="6271.550781"/>
    <use xlink:href="#DejaVuSans-430" x="6324.089844"/>
    <use xlink:href="#DejaVuSans-454" x="6385.369141"/>
    <use xlink:href="#DejaVuSans-20" x="6440.251953"/>
    <use xlink:href="#DejaVuSans-431" x="6472.039062"/>
    <use xlink:href="#DejaVuSans-443" x="6533.708984"/>
    <use xlink:href="#DejaVuSans-444" x="6592.888672"/>
    <use xlink:href="#DejaVuSans-435" x="6678.386719"/>
    <use xlink:href="#DejaVuSans-440" x="6739.910156"/>
    <use xlink:href="#DejaVuSans-438" x="6803.386719"/>
    <use xlink:href="#DejaVuSans-437" x="6868.376953"/>
    <use xlink:href="#DejaVuSans-430" x="6921.550781"/>
    <use xlink:href="#DejaVuSans-446" x="6982.830078"/>
    <use xlink:href="#DejaVuSans-456" x="7050.896484"/>
    <use xlink:href="#DejaVuSans-457" x="7078.679688"/>
    <use xlink:href="#DejaVuSans-20" x="7106.462891"/>
    <use xlink:href="#DejaVuSans-432" x="7138.25"/>
    <use xlink:href="#DejaVuSans-441" x="7197.185547"/>
    <use xlink:href="#DejaVuSans-44c" x="7252.166016"/>
    <use xlink:href="#DejaVuSans-43e" x="7311.101562"/>
    <use xlink:href="#DejaVuSans-433" x="7372.283203"/>
    <use xlink:href="#DejaVuSans-43e" x="7424.822266"/>
    <use xlink:href="#DejaVuSans-20" x="7486.003906"/>
    <use xlink:href="#DejaVuSans-440" x="7517.791016"/>
    <use xlink:href="#DejaVuSans-430" x="7581.267578"/>
    <use xlink:href="#DejaVuSans-441" x="7642.546875"/>
    <use xlink:href="#DejaVuSans-442" x="7697.527344"/>
    <use xlink:href="#DejaVuSans-440" x="7755.779297"/>
    <use xlink:href="#DejaVuSans-443" x="7819.255859"/>
    <use xlink:href="#DejaVuSans-20" x="7878.435547"/>
    <use xlink:href="#DejaVuSans-456" x="7910.222656"/>
    <use xlink:href="#DejaVuSans-20" x="7938.005859"/>
    <use xlink:href="#DejaVuSans-41d" x="7969.792969"/>
    <use xlink:href="#DejaVuSans-415" x="8044.988281"/>
   </g>
   <!-- дає виграшу за затримкою перед глибоким блочним перемежуванням. Затримка на графіку - лише внесок вікна; повна наскрізна береться з подієвого розкладу -->
   <g style="fill: #555555" transform="translate(7.2 306.027422) scale(0.065 -0.065)">
    <defs>
     <path id="DejaVuSans-448" d="M 3216 459 
L 4697 459 
L 4697 3500 
L 5275 3500 
L 5275 0 
L 581 0 
L 581 3500 
L 1159 3500 
L 1159 459 
L 2638 459 
L 2638 3500 
L 3216 3500 
L 3216 459 
z
" transform="scale(0.015625)"/>
     <path id="DejaVuSans-44e" d="M 3431 3097 
Q 2969 3097 2700 2736 
Q 2431 2375 2431 1747 
Q 2431 1119 2698 758 
Q 2966 397 3431 397 
Q 3891 397 4159 759 
Q 4428 1122 4428 1747 
Q 4428 2369 4159 2733 
Q 3891 3097 3431 3097 
z
M 1844 2103 
Q 1903 2697 2292 3140 
Q 2681 3584 3431 3584 
Q 4181 3584 4609 3096 
Q 5038 2609 5038 1747 
Q 5038 888 4609 398 
Q 4181 -91 3431 -91 
Q 2678 -91 2267 381 
Q 1856 853 1828 1628 
L 1178 1628 
L 1178 0 
L 603 0 
L 603 3500 
L 1178 3500 
L 1178 2103 
L 1844 2103 
z
" transform="scale(0.015625)"/>
     <path id="DejaVuSans-436" d="M 2597 3500 
L 3169 3500 
L 3169 1856 
L 4697 3500 
L 5366 3500 
L 4109 2153 
L 5547 0 
L 4931 0 
L 3753 1769 
L 3169 1141 
L 3169 0 
L 2597 0 
L 2597 1141 
L 2013 1769 
L 834 0 
L 219 0 
L 1656 2153 
L 400 3500 
L 1069 3500 
L 2597 1856 
L 2597 3500 
z
" transform="scale(0.015625)"/>
     <path id="DejaVuSans-417" d="M 1828 4750 
Q 2597 4750 3084 4423 
Q 3572 4097 3572 3541 
Q 3572 3153 3350 2886 
Q 3128 2619 2719 2516 
Q 3172 2419 3426 2112 
Q 3681 1806 3681 1356 
Q 3681 638 3126 273 
Q 2572 -91 1828 -91 
Q 1447 -91 1003 12 
Q 559 116 422 203 
L 422 853 
Q 900 575 1164 508 
Q 1428 441 1816 441 
Q 2403 441 2728 666 
Q 3053 891 3053 1356 
Q 3053 1769 2764 2001 
Q 2475 2234 1866 2234 
L 1228 2234 
L 1228 2753 
L 1891 2753 
Q 2450 2753 2697 2939 
Q 2944 3125 2944 3475 
Q 2944 3834 2689 4026 
Q 2434 4219 1816 4219 
Q 1397 4219 1253 4181 
Q 1109 4144 469 3903 
L 469 4519 
Q 822 4644 1190 4697 
Q 1559 4750 1828 4750 
z
" transform="scale(0.015625)"/>
     <path id="DejaVuSans-3b" d="M 750 3309 
L 1409 3309 
L 1409 2516 
L 750 2516 
L 750 3309 
z
M 750 794 
L 1409 794 
L 1409 256 
L 897 -744 
L 494 -744 
L 750 256 
L 750 794 
z
" transform="scale(0.015625)"/>
    </defs>
    <use xlink:href="#DejaVuSans-434"/>
    <use xlink:href="#DejaVuSans-430" x="69.140625"/>
    <use xlink:href="#DejaVuSans-454" x="130.419922"/>
    <use xlink:href="#DejaVuSans-20" x="185.302734"/>
    <use xlink:href="#DejaVuSans-432" x="217.089844"/>
    <use xlink:href="#DejaVuSans-438" x="276.025391"/>
    <use xlink:href="#DejaVuSans-433" x="341.015625"/>
    <use xlink:href="#DejaVuSans-440" x="393.554688"/>
    <use xlink:href="#DejaVuSans-430" x="457.03125"/>
    <use xlink:href="#DejaVuSans-448" x="518.310547"/>
    <use xlink:href="#DejaVuSans-443" x="609.814453"/>
    <use xlink:href="#DejaVuSans-20" x="668.994141"/>
    <use xlink:href="#DejaVuSans-437" x="700.78125"/>
    <use xlink:href="#DejaVuSans-430" x="753.955078"/>
    <use xlink:href="#DejaVuSans-20" x="815.234375"/>
    <use xlink:href="#DejaVuSans-437" x="847.021484"/>
    <use xlink:href="#DejaVuSans-430" x="900.195312"/>
    <use xlink:href="#DejaVuSans-442" x="961.474609"/>
    <use xlink:href="#DejaVuSans-440" x="1019.726562"/>
    <use xlink:href="#DejaVuSans-438" x="1083.203125"/>
    <use xlink:href="#DejaVuSans-43c" x="1148.193359"/>
    <use xlink:href="#DejaVuSans-43a" x="1223.632812"/>
    <use xlink:href="#DejaVuSans-43e" x="1284.033203"/>
    <use xlink:href="#DejaVuSans-44e" x="1345.214844"/>
    <use xlink:href="#DejaVuSans-20" x="1429.394531"/>
    <use xlink:href="#DejaVuSans-43f" x="1461.181641"/>
    <use xlink:href="#DejaVuSans-435" x="1526.5625"/>
    <use xlink:href="#DejaVuSans-440" x="1588.085938"/>
    <use xlink:href="#DejaVuSans-435" x="1651.5625"/>
    <use xlink:href="#DejaVuSans-434" x="1713.085938"/>
    <use xlink:href="#DejaVuSans-20" x="1782.226562"/>
    <use xlink:href="#DejaVuSans-433" x="1814.013672"/>
    <use xlink:href="#DejaVuSans-43b" x="1866.552734"/>
    <use xlink:href="#DejaVuSans-438" x="1930.46875"/>
    <use xlink:href="#DejaVuSans-431" x="1995.458984"/>
    <use xlink:href="#DejaVuSans-43e" x="2057.128906"/>
    <use xlink:href="#DejaVuSans-43a" x="2118.310547"/>
    <use xlink:href="#DejaVuSans-438" x="2178.710938"/>
    <use xlink:href="#DejaVuSans-43c" x="2243.701172"/>
    <use xlink:href="#DejaVuSans-20" x="2319.140625"/>
    <use xlink:href="#DejaVuSans-431" x="2350.927734"/>
    <use xlink:href="#DejaVuSans-43b" x="2412.597656"/>
    <use xlink:href="#DejaVuSans-43e" x="2476.513672"/>
    <use xlink:href="#DejaVuSans-447" x="2537.695312"/>
    <use xlink:href="#DejaVuSans-43d" x="2596.777344"/>
    <use xlink:href="#DejaVuSans-438" x="2662.158203"/>
    <use xlink:href="#DejaVuSans-43c" x="2727.148438"/>
    <use xlink:href="#DejaVuSans-20" x="2802.587891"/>
    <use xlink:href="#DejaVuSans-43f" x="2834.375"/>
    <use xlink:href="#DejaVuSans-435" x="2899.755859"/>
    <use xlink:href="#DejaVuSans-440" x="2961.279297"/>
    <use xlink:href="#DejaVuSans-435" x="3024.755859"/>
    <use xlink:href="#DejaVuSans-43c" x="3086.279297"/>
    <use xlink:href="#DejaVuSans-435" x="3161.71875"/>
    <use xlink:href="#DejaVuSans-436" x="3223.242188"/>
    <use xlink:href="#DejaVuSans-443" x="3313.330078"/>
    <use xlink:href="#DejaVuSans-432" x="3372.509766"/>
    <use xlink:href="#DejaVuSans-430" x="3431.445312"/>
    <use xlink:href="#DejaVuSans-43d" x="3492.724609"/>
    <use xlink:href="#DejaVuSans-43d" x="3558.105469"/>
    <use xlink:href="#DejaVuSans-44f" x="3623.486328"/>
    <use xlink:href="#DejaVuSans-43c" x="3683.642578"/>
    <use xlink:href="#DejaVuSans-2e" x="3759.082031"/>
    <use xlink:href="#DejaVuSans-20" x="3790.869141"/>
    <use xlink:href="#DejaVuSans-417" x="3822.65625"/>
    <use xlink:href="#DejaVuSans-430" x="3886.767578"/>
    <use xlink:href="#DejaVuSans-442" x="3948.046875"/>
    <use xlink:href="#DejaVuSans-440" x="4006.298828"/>
    <use xlink:href="#DejaVuSans-438" x="4069.775391"/>
    <use xlink:href="#DejaVuSans-43c" x="4134.765625"/>
    <use xlink:href="#DejaVuSans-43a" x="4210.205078"/>
    <use xlink:href="#DejaVuSans-430" x="4270.605469"/>
    <use xlink:href="#DejaVuSans-20" x="4331.884766"/>
    <use xlink:href="#DejaVuSans-43d" x="4363.671875"/>
    <use xlink:href="#DejaVuSans-430" x="4429.052734"/>
    <use xlink:href="#DejaVuSans-20" x="4490.332031"/>
    <use xlink:href="#DejaVuSans-433" x="4522.119141"/>
    <use xlink:href="#DejaVuSans-440" x="4574.658203"/>
    <use xlink:href="#DejaVuSans-430" x="4638.134766"/>
    <use xlink:href="#DejaVuSans-444" x="4699.414062"/>
    <use xlink:href="#DejaVuSans-456" x="4784.912109"/>
    <use xlink:href="#DejaVuSans-43a" x="4812.695312"/>
    <use xlink:href="#DejaVuSans-443" x="4873.095703"/>
    <use xlink:href="#DejaVuSans-20" x="4932.275391"/>
    <use xlink:href="#DejaVuSans-2d" x="4964.0625"/>
    <use xlink:href="#DejaVuSans-20" x="5000.146484"/>
    <use xlink:href="#DejaVuSans-43b" x="5031.933594"/>
    <use xlink:href="#DejaVuSans-438" x="5095.849609"/>
    <use xlink:href="#DejaVuSans-448" x="5160.839844"/>
    <use xlink:href="#DejaVuSans-435" x="5252.34375"/>
    <use xlink:href="#DejaVuSans-20" x="5313.867188"/>
    <use xlink:href="#DejaVuSans-432" x="5345.654297"/>
    <use xlink:href="#DejaVuSans-43d" x="5404.589844"/>
    <use xlink:href="#DejaVuSans-435" x="5469.970703"/>
    <use xlink:href="#DejaVuSans-441" x="5531.494141"/>
    <use xlink:href="#DejaVuSans-43e" x="5586.474609"/>
    <use xlink:href="#DejaVuSans-43a" x="5647.65625"/>
    <use xlink:href="#DejaVuSans-20" x="5708.056641"/>
    <use xlink:href="#DejaVuSans-432" x="5739.84375"/>
    <use xlink:href="#DejaVuSans-456" x="5798.779297"/>
    <use xlink:href="#DejaVuSans-43a" x="5826.5625"/>
    <use xlink:href="#DejaVuSans-43d" x="5886.962891"/>
    <use xlink:href="#DejaVuSans-430" x="5952.34375"/>
    <use xlink:href="#DejaVuSans-3b" x="6013.623047"/>
    <use xlink:href="#DejaVuSans-20" x="6047.314453"/>
    <use xlink:href="#DejaVuSans-43f" x="6079.101562"/>
    <use xlink:href="#DejaVuSans-43e" x="6144.482422"/>
    <use xlink:href="#DejaVuSans-432" x="6205.664062"/>
    <use xlink:href="#DejaVuSans-43d" x="6264.599609"/>
    <use xlink:href="#DejaVuSans-430" x="6329.980469"/>
    <use xlink:href="#DejaVuSans-20" x="6391.259766"/>
    <use xlink:href="#DejaVuSans-43d" x="6423.046875"/>
    <use xlink:href="#DejaVuSans-430" x="6488.427734"/>
    <use xlink:href="#DejaVuSans-441" x="6549.707031"/>
    <use xlink:href="#DejaVuSans-43a" x="6604.6875"/>
    <use xlink:href="#DejaVuSans-440" x="6665.087891"/>
    <use xlink:href="#DejaVuSans-456" x="6728.564453"/>
    <use xlink:href="#DejaVuSans-437" x="6756.347656"/>
    <use xlink:href="#DejaVuSans-43d" x="6809.521484"/>
    <use xlink:href="#DejaVuSans-430" x="6874.902344"/>
    <use xlink:href="#DejaVuSans-20" x="6936.181641"/>
    <use xlink:href="#DejaVuSans-431" x="6967.96875"/>
    <use xlink:href="#DejaVuSans-435" x="7029.638672"/>
    <use xlink:href="#DejaVuSans-440" x="7091.162109"/>
    <use xlink:href="#DejaVuSans-435" x="7154.638672"/>
    <use xlink:href="#DejaVuSans-442" x="7216.162109"/>
    <use xlink:href="#DejaVuSans-44c" x="7274.414062"/>
    <use xlink:href="#DejaVuSans-441" x="7333.349609"/>
    <use xlink:href="#DejaVuSans-44f" x="7388.330078"/>
    <use xlink:href="#DejaVuSans-20" x="7448.486328"/>
    <use xlink:href="#DejaVuSans-437" x="7480.273438"/>
    <use xlink:href="#DejaVuSans-20" x="7533.447266"/>
    <use xlink:href="#DejaVuSans-43f" x="7565.234375"/>
    <use xlink:href="#DejaVuSans-43e" x="7630.615234"/>
    <use xlink:href="#DejaVuSans-434" x="7691.796875"/>
    <use xlink:href="#DejaVuSans-456" x="7760.9375"/>
    <use xlink:href="#DejaVuSans-454" x="7788.720703"/>
    <use xlink:href="#DejaVuSans-432" x="7843.603516"/>
    <use xlink:href="#DejaVuSans-43e" x="7902.539062"/>
    <use xlink:href="#DejaVuSans-433" x="7963.720703"/>
    <use xlink:href="#DejaVuSans-43e" x="8016.259766"/>
    <use xlink:href="#DejaVuSans-20" x="8077.441406"/>
    <use xlink:href="#DejaVuSans-440" x="8109.228516"/>
    <use xlink:href="#DejaVuSans-43e" x="8172.705078"/>
    <use xlink:href="#DejaVuSans-437" x="8233.886719"/>
    <use xlink:href="#DejaVuSans-43a" x="8287.060547"/>
    <use xlink:href="#DejaVuSans-43b" x="8347.460938"/>
    <use xlink:href="#DejaVuSans-430" x="8411.376953"/>
    <use xlink:href="#DejaVuSans-434" x="8472.65625"/>
    <use xlink:href="#DejaVuSans-443" x="8541.796875"/>
   </g>
   <!-- (G43) -->
   <g style="fill: #555555" transform="translate(7.2 313.306) scale(0.065 -0.065)">
    <use xlink:href="#DejaVuSans-28"/>
    <use xlink:href="#DejaVuSans-47" x="39.013672"/>
    <use xlink:href="#DejaVuSans-34" x="116.503906"/>
    <use xlink:href="#DejaVuSans-33" x="180.126953"/>
    <use xlink:href="#DejaVuSans-29" x="243.75"/>
   </g>
  </g>
 </g>
 <defs>
  <clipPath id="p642eb563d8">
   <rect x="75.6" y="21.406313" width="424.08" height="232.848"/>
  </clipPath>
 </defs>
</svg>
